<svg xmlns="http://www.w3.org/2000/svg" viewBox="0 0 972 224"><defs><style>.cls-1{fill:#212529;}.cls-2,.cls-4{fill:#fff;}.cls-3{fill:#e58625;}.cls-4{font-size:118.45px;font-family:Granada;letter-spacing:0.06em;}.cls-5{fill:#e48525;}.cls-6{fill:#423c35;}</style></defs><title>Artboard 1</title><g id="Layer_1" data-name="Layer 1"><rect class="cls-1" x="7" y="9" width="957" height="203"/></g><g id="Layer_5" data-name="Layer 5"><rect class="cls-2" x="218" y="20" width="735" height="109"/></g><g id="Layer_2" data-name="Layer 2"><path class="cls-3" d="M519.84,112.86l3.68-4.32V49.64H501.71l4.53-18.43h54.65l4.53,18.43H543v58.9l3.8,4.32Z"/><path class="cls-3" d="M570.47,112.86l3.92-4.32v-73l-3.92-4.32h26.22l-3.19,3.85v73.48l3.56,4.32Z"/><path class="cls-3" d="M603.45,112.86l3.8-4.32V35.65l-3.8-4.44h27l-2,4.44L642.79,67.6l14.45-31.95-2.08-4.44h27.08l-3.8,4.44v72.89l3.8,4.32H655.41l3.67-4.32V75.42L648.79,99.56h-12L626.37,75.42v33.12l3.79,4.32Z"/><path class="cls-3" d="M686.77,112.86l3.8-4.32V35.76l-3.8-4.55h47.3l11.52,7.94V63.87L733.46,71l12.13,5.83v26.94l-10.54,9.1ZM715.93,62l8.7-5.24V50H709.69v9.33Zm8.7,32.31V86.38l-14.94-7.11v15Z"/><path class="cls-3" d="M753.67,112.86l3.8-4.32v-73l-3.8-4.32h47.55L808,53.49l-11.64-3.73H776.59V61.07h23.64L795.7,79.38H776.59V94.31H799.5l14.21-4L807,112.86Z"/><path class="cls-3" d="M817.51,112.86l3.8-4.32v-73l-3.8-4.32h48.65l10.29,9V72.27l-13.6,6.88,14.34,29,4.53,4.67H855.13l1.35-3.85-10.3-21.7-5.63,2.92V109l3.43,3.85Zm23.41-42.58,14.7-7.57V49.64h-14.7Z"/><path class="cls-3" d="M901,112.86l-12.63-9V84.05L906.1,94.19h16.42V87.66l-34.19-19V39.84l10.3-8.63h30l13.48,8.63v21L921.78,49.76H907.57v8.4l34.56,19.48v26.24l-9.07,9Z"/><path class="cls-3" d="M244.44,113.05l3.77-4.32V49.83H225.87l4.65-18.42h56l4.64,18.42h-23v58.9l3.89,4.32Z"/><path class="cls-3" d="M287.15,113.05l4.64-4.32,13.3-72.89L302,31.41h41.4l-3,4.43,13.17,72.89,4.64,4.32H330.81l3-4.32-2.76-14.11H314l-2.88,14.11,3.38,4.32ZM327.68,76l-4.77-26h-.5l-5.15,26Z"/><path class="cls-3" d="M363.18,113.05l3.89-4.32V35.84l-3.89-4.43H389.9l-3.39,3.73V94.62h20.08l12.67-3.14-6.65,21.57Z"/><path class="cls-3" d="M422.14,113.05l3.89-4.32V35.84l-3.89-4.43h26.73l-3.39,3.73V94.62h20.07l12.67-3.14-6.65,21.57Z"/><text class="cls-4" transform="translate(388.39 195.55) scale(1.42 0.93)">XIDERMY</text><text class="cls-4" transform="translate(225.9 193.34) scale(1.42 0.93)">T</text><text class="cls-4" transform="translate(297.48 194.51) scale(1.42 0.93)">A</text></g><g id="Layer_3" data-name="Layer 3"><path class="cls-5" d="M137.37,198.5c-12.35,0-21.43-.05-28.73-.09-5.39,0-10,0-14.62,0-4.23,0-8.07,0-12.11.06l-2.57,0L78.46,196a3.62,3.62,0,0,1,1.63-4.24h0c2.05-2.16,6-6.54,6.82-15.43l.22-114H44.48c-6.75,3.48-9.76,5.13-11.77,6.24-1.73.95-2.87,1.58-5,2.62l-6.16,3,8.84-50.21H190.45l3.4,20.64,4.23,30.61L192,71.83c-1.17-.64-2.36-1.32-3.75-2.11-2.94-1.68-6.93-4-13.8-7.59H132l-.16,114.34c0,5.42,4.75,12.67,7.3,15.37a3.61,3.61,0,0,1,1.62,4.2l-.77,2.44-2.63,0Z"/><path class="cls-2" d="M187.48,27.42l2.92,17.71,3.26,23.63c-3.77-2.06-7.71-4.5-18.36-10.13H128.51l-.16,117.83c0,7.1,5.91,15.39,8.45,18,.18.18.85.55.57.55-21.27,0-32.37-.14-43.35-.14-3.91,0-7.81,0-12.15.06h0c-.31,0,.42-.41.62-.63,2.44-2.57,7.05-7.73,7.92-17.83L90.65,58.8h-47c-13.19,6.77-12.82,7-17.48,9.21l7.15-40.59H187.48m5.94-7h-166l-1,5.79L19.27,66.8,16.9,80.26l12.31-6c2.23-1.08,3.41-1.72,5.19-2.7S39.15,69,45.33,65.8h38.3l-.21,110.34a20.65,20.65,0,0,1-5.67,13,7.16,7.16,0,0,0-2.61,7.95,7,7,0,0,0,6.73,4.85H82c4,0,7.86-.06,12.07-.06,4.59,0,9.23,0,14.6,0,7.3,0,16.39.09,28.75.09a7,7,0,0,0,6.74-4.91,7.13,7.13,0,0,0-2.61-7.86c-2.25-2.49-6.14-8.74-6.15-12.78l.15-110.82h38.06c6.36,3.38,10.13,5.53,12.94,7.14,1.39.79,2.59,1.47,3.8,2.13l12.19,6.67-1.9-13.77-3.26-23.62V44l-2.92-17.72-1-5.86Z"/><path class="cls-6" d="M187.48,27.42l2.92,17.71,3.26,23.63c-3.77-2.06-7.71-4.5-18.36-10.13H128.51l-.16,117.83c0,7.1,5.91,15.39,8.45,18,.18.18.85.55.57.55-21.27,0-32.37-.14-43.35-.14-3.91,0-7.81,0-12.15.06h0c-.31,0,.42-.41.62-.63,2.44-2.57,7.05-7.73,7.92-17.83L90.65,58.8h-47c-13.19,6.77-12.82,7-17.48,9.21l7.15-40.59H187.48m.85-1H32.47l-.14.83L25.18,67.84l-.34,1.92,1.76-.85c2.09-1,3.21-1.63,4.9-2.56,2.08-1.14,5.21-2.87,12.38-6.55H89.65l-.24,116.62c-.88,10-5.62,15.05-7.64,17.19l-.2.15c-.37.26-1,.7-.73,1.45a1.06,1.06,0,0,0,1,.71c4.06,0,7.92-.06,12.15-.06,4.61,0,9.25,0,14.63,0,7.3,0,16.38.09,28.72.09a1,1,0,0,0,1-.72c.24-.75-.38-1.18-.71-1.41l-.19-.14c-2.53-2.59-8.13-10.56-8.14-17.27l.16-116.83h45.54c7.25,3.83,11.39,6.19,14.42,7.92,1.37.78,2.55,1.45,3.71,2.09l1.74,1-.27-2L191.39,45l-2.92-17.74-.14-.84Z"/><path class="cls-6" d="M185,54.5c-2.66-1.45-12.46-4.84-12.46-4.84h-57l-.11,127.09c.17,4,3.37,9.17,5.16,11,.13.13-18.86.14-18.66.14,3.86-.07,12.1-.11-1.44,0a21.16,21.16,0,0,0,3.89-11.14l-1-127H46.22s-7,3.32-10.31,4.91l4-17.33L182,37.74Z"/></g></svg>