<?xml version="1.0" encoding="utf-8"?>
<!-- Generator: Adobe Illustrator 24.2.3, SVG Export Plug-In . SVG Version: 6.00 Build 0)  -->
<svg version="1.1" id="Layer_1" xmlns="http://www.w3.org/2000/svg" xmlns:xlink="http://www.w3.org/1999/xlink" x="0px" y="0px"
	 viewBox="0 0 375 170" style="enable-background:new 0 0 375 170;" xml:space="preserve">
<style type="text/css">
	.st0{fill:#2B2725;stroke:#2B2725;stroke-width:4;stroke-miterlimit:10;}
	.st1{fill:#FFFFFF;stroke:#2B2725;stroke-width:4;stroke-miterlimit:10;}
	.st2{fill:#E48525;}
	.st3{fill:#FFFFFF;}
</style>
<rect x="4.19" y="85.37" class="st0" width="366.73" height="80.75"/>
<rect x="4.06" y="4.99" class="st1" width="366.73" height="80.75"/>
<g>
	<path class="st2" d="M42.78,16.22l0.5,3.49l-0.25,3.91h-3.74l-0.83-0.25l-2.49-0.17h-2.58l-0.5,3.49l0.33,1.83l-0.17,6.15
		c0,0.75,0,2.83,0.08,3.33c0,0.67,0.08,1.41,0.08,2v1.41l0.08,6.4l-0.75,4.99l-0.08,0.08l1,1.58V70.1l0.67,5.9l-2.41,1.33
		l-2.33,0.42l-4.41-0.67v-6.4l1.25-5.24l-0.75-0.83l0.42-11.73l0.42-16.96l-0.5-3.91l0.33-5.32l-0.5-3.41l-1.83-0.25l-0.42,0.42
		c-0.58,0.17-1.08,0.25-1.33,0.25L17,23.87l-1-1l0.25-6.82l8.07,0.42l1.58,0.67c0.5,0,1.25-0.58,1.91-0.58
		c1.25,0.08,2.33,0.08,3.49,0.08l3.83-0.25L42.78,16.22z"/>
	<path class="st2" d="M63.65,59.71l-1.16,0.17H62.4l-1.66,1.16l-5.57,1.33l-0.75,0.33l-1.66,0.67l-0.92,5.9l-0.75,0.91l0.58,2.33
		l-0.92,5.57l-5.16-0.5l-2.91-1.83l2.25-10.15l0.83-5.24l0.92-0.92L46.6,57.8l1.66-10.23l0.25-1.58l0.5-1.75v-1.5l2.49-11.14
		l1.5-1.75l-0.92-1.25l0.58-3.33l0.75-3.49l0.83-5.24l6.82-0.33l1.41,0.67l-0.08,2.91l0.25,0.67l0.33,0.83l2.66,12.72l-0.58,1.5
		l1,0.75l3.99,20.04v1.17l2.08,7.73l0.83,5.24l-0.5,0.67l1.25,1.33l0.92,3.58l-6.15,2h-1.08l-1.41-0.75L64.9,66.78l-0.33-2.33
		l0.67-0.83l-0.75-0.5l-0.67-2.74L63.65,59.71z M55.08,49.4l0.08-0.08l-1,5.41l-0.08,0.58l5.41-1.66l2.33-0.58l-1.66-8.98
		l-0.33-4.32l-0.33-1.5l-1.25-8.81l-1.66,10.15L55.75,40l0.42,1.33L55.08,49.4z"/>
	<path class="st2" d="M97.99,69.36l3.91-0.17l0.25,1.75l-0.33,5.24l-1.25,1.58l-6.32-0.42l-1.16,0.08h-3.58l-0.75-0.5l-3.66,0.67
		l-3.74-0.17l-0.17-5.66l1.08-1.5l-0.75-2.08l0.58-13.72l-0.17-27.11l1.08-1.41l-1.33-0.42l-0.58-9.07h4.32l2.74-0.67l2.16,1.91
		l-0.17,5.41l-0.33,2.83l-0.25,9.31l-0.5,9.15v4.08l-0.91,1.41l1,1.08l0.17,5.07l0.25,5.74l-0.08,0.08l0.33,5.82v2.41l6.32-0.17
		L97.99,69.36z"/>
	<path class="st2" d="M125.6,69.36l3.91-0.17l0.25,1.75l-0.33,5.24l-1.25,1.58l-6.32-0.42l-1.16,0.08h-3.58l-0.75-0.5l-3.66,0.67
		l-3.74-0.17l-0.17-5.66l1.08-1.5l-0.75-2.08l0.58-13.72l-0.17-27.11l1.08-1.41l-1.33-0.42l-0.58-9.07h4.32l2.74-0.67l2.16,1.91
		l-0.17,5.41l-0.33,2.83l-0.25,9.31l-0.5,9.15v4.08l-0.91,1.41l1,1.08l0.17,5.07l0.25,5.74l-0.08,0.08l0.33,5.82v2.41l6.32-0.17
		L125.6,69.36z"/>
	<path class="st2" d="M173.5,16.22l0.5,3.49l-0.25,3.91h-3.74l-0.83-0.25l-2.49-0.17h-2.58l-0.5,3.49l0.33,1.83l-0.17,6.15
		c0,0.75,0,2.83,0.08,3.33c0,0.67,0.08,1.41,0.08,2v1.41l0.08,6.4l-0.75,4.99l-0.08,0.08l1,1.58V70.1l0.67,5.9l-2.41,1.33
		l-2.33,0.42l-4.41-0.67v-6.4l1.25-5.24l-0.75-0.83l0.42-11.73l0.42-16.96l-0.5-3.91l0.33-5.32l-0.5-3.41l-1.83-0.25l-0.42,0.42
		c-0.58,0.17-1.08,0.25-1.33,0.25l-5.07,0.17l-1-1l0.25-6.82l8.07,0.42l1.58,0.67c0.5,0,1.25-0.58,1.91-0.58
		c1.25,0.08,2.33,0.08,3.49,0.08l3.83-0.25L173.5,16.22z"/>
	<path class="st2" d="M180.98,39.17l-0.25-16.63l0.67-1.5l-0.75-0.42l-0.42-4.16l3.91-0.25l5.41,0.33l-0.42,6.07l-0.42,2.08
		l-0.25,10.89l-0.25,4.24l0.33,3.24l0.17,2.08l-0.75,1.75l0.92,0.58v23.04l0.17,1.25l0.17,1.58l-0.08,3.08l-3.66,1.16l-1.75-0.08
		l-3.83-0.08l1.16-7.4l1-1.66l-1-1.41v-2.99V48.4l0.25-2.58l0.25-4.57L180.98,39.17z"/>
	<path class="st2" d="M214.91,31.6l0.08,0.08l1.41-2.16l2.66-4.82l1.25-0.42l-0.67-1.41l4.32-7.23l4.07,0.75l2.25,1l-0.58,12.31
		l-1,1.91l0.83,1.16l0.67,26.78l-0.42,5.24l0.58,4.57l0.17,2.66l0.5,5.24l-6.9,0.33l-2-1.25l-0.25-3.58l0.58-5.49v-8.9l1-1.5
		l-0.92-0.83l-0.33-3.83l0.58-18.13l-0.33-3.08l-0.75,1.33l-1.41,1.83v0.83l-1.08,2L218.07,40l-2.99,0.58l-2.25-0.08l-2-3.91
		l-0.33-0.67l-0.58-1.33l-1.75-3.41l-0.17,5.57v0.08l0.08,0.08V48.4l-0.58,1.41l0.58,11.81l0.17,12.22v3.58l-7.82,0.17l-0.67-3.16
		l1.08-3.16v0.08l-0.75-2v-1.66v-2.16l0.5-22.87l1.33-1.41l-1.33-0.92l0.08-7.48l-0.25-4.07l-0.25-4.08l0.67-1.16l-0.08-0.42
		l-0.75-1.08l-0.08-0.83l-0.08-4.66l3.58-0.25l3.08-0.42l3.74,7.57L214.91,31.6z"/>
	<path class="st2" d="M249.09,78.59l-3.49-1.08l-4.57-0.83l0.67-11.31l-0.33-3.91V48.98l0.5-3.83l-0.33-8.9l-0.08-9.56l0.91-2.5
		l-0.83-0.83l-0.25-1.25l-0.17-4.74l6.99-2l10.98,9.73l5.65,4.49l0.33,1.66l-0.58,4.91l-4.91,5.32l-4.16,4.82l0.58,0.5l1.25,1.08
		l0.92,0.83l8.73,8.32l0.08,1.75l-0.08,3.83l-3.24,3.33l-3.41,2.41l-2.41,2.99l-2.91,2.33L249.09,78.59z M249.01,48.9v14.72
		l-0.75,0.67l0.83,0.83l-0.08,5.07l4.24-4.49l2.25-1.91l1-0.67l3.16-3.49l-2.99-3.74l-1.16-1.08l-2-2.08l-3.74-3.33L249.01,48.9z
		 M248.67,43.74l0.67-0.5l4.08-4.41l1.25-0.17l0.33-2.08l2.91-3.16h0.08l-2.58-2.33l-0.42-1l-0.67-0.08l-5.66-4.99l0.08,7.32
		l-0.25,4.32L248.67,43.74z"/>
	<path class="st2" d="M291,24.12l-2-0.67l-0.25,0.08l-1.33,0.25l-4.57-0.17h-0.75v0.92l-0.17,2.08v8.23l-0.42,2.5l-0.92,1.5
		l0.83,0.67l0.17,3.24l3.08,0.17l3.24-0.17l4.24-0.42l1.08,2.08l-0.5,2.5l-0.17,3.41l-4.07-0.17l-5.24-0.17h-1.33l-0.33,8.57
		l0.5,2.41l-0.25,0.75l0.08,0.17l0.17,8.07l0.75,0.17l0.67,0.17l6.65-0.08l2.08-0.67l4.16,0.08l-0.17,4.16l-0.33,3.08L294,77.67
		l-5.49-0.08l-4.74-0.5h-2.91l-0.67,0.42l-6.24-0.08l-0.42-3.41l0.5-5.66l-0.08-0.92l0.08-3.83l1-2.16l-0.75-1v-1.91l-0.08-4.49
		l0.33-0.67l-0.67-8.23l0.25-3.08v-6.15l0.08-6.49l-0.08-4.24l0.91-1.41l-0.91-1.08l-0.42-5.9l3.91-0.5h4.74l1.16,0.67l3.24-0.67
		l8.23-0.08l0.08,3.24l-0.17,4.66H291z"/>
	<path class="st2" d="M311.79,51.31l0.08,9.06l0.25,8.32l0.25,0.75l0.08,6.9l-3.33,1.33l-5.49-0.5l0.5-13.22l1.25-3.24l-0.75-1.08
		v-3.24l-0.33-9.73l-0.17-4.32l0.67-1.66l-0.42-15.88l-0.33-7.15l6.57-2.66l13.22,11.48l0.5,2.08c0.08,0.08,1.41-0.33,1.5-0.33
		l3.99,3.66l-0.58,4.99l-3.83,4.66l-2.66,3.16l-1.41,1.75l-2.33,3.16c0.58,1.16,1.58,2.58,2.08,3.58v1.41
		c0.67,0.75,1.17,1.16,1.75,2l3.33,5.65v1.08l0.5,0.25l1.16,2.41v-0.08l1.5,3.16l2.74,2.91L332,74.35l-6.74,3.74l-2-3.24l-2.91-6.65
		l0.08-1.41l-1-0.5l-3.08-5.82l-0.75-1.91l-3.33-6.74L311.79,51.31z M311.79,47.07l0.58-0.33l4.16-5.16
		c1.16-1.41,3.16-3.99,4.24-5.49l0.92-1.16l-1.66-2.08l-0.58-0.42l-7.65-7.57l-0.17,6.4v0.83l-0.67,1.58l0.33,1.5l0.17,0.5
		l0.17,0.91l0.33,7.4L311.79,47.07z"/>
	<path class="st2" d="M349.8,54.3l-2.83-3.41l-1.66-0.75l-6.4-5.9l-3.99-3.91l-0.08-5.24l4.08-5.82l4.24-4.91l-0.17-0.91l2.16-2.91
		l1.66-1.08c0.17-0.33-0.17-0.75-0.08-1l2-3.33l2.5,0.25l4.91,3.91l-2.25,3.33l-2.16,2.16l-0.75,1.5l-4.74,5.57l-0.83,1.17
		l-0.17,0.58l-2.5,3.33l1.58,1.91l1.58,2.25l1.33,0.83l7.73,7.24l2.25,1.66l0.17,6.49l-2.99,4.91l-4.49,5.49l-3.33,4.49
		c-0.33,0.58-0.58,1.25-0.83,1.75l0.08-0.33l-0.92,2.66L342.64,79l-6.82-4.24l1.25-3.08l1.58-1.41c0.83-1.17,1.41-2.08,2.16-3.24
		c0.5-0.83,0.91-1.58,1.41-2.41l2.33-1.08l-0.17-0.92L349.8,54.3z"/>
</g>
<g>
	<path class="st3" d="M42.36,96.88l0.5,3.49l-0.25,3.91h-3.74l-0.83-0.25l-2.49-0.17h-2.58l-0.5,3.49l0.33,1.83l-0.17,6.15
		c0,0.75,0,2.83,0.08,3.33c0,0.67,0.08,1.41,0.08,2v1.41l0.08,6.4l-0.75,4.99l-0.08,0.08l1,1.58v15.63l0.67,5.9L31.3,158l-2.33,0.42
		l-4.41-0.67v-6.4l1.25-5.24l-0.75-0.83l0.42-11.73l0.42-16.96l-0.5-3.91l0.33-5.32l-0.5-3.41l-1.83-0.25l-0.42,0.42
		c-0.58,0.17-1.08,0.25-1.33,0.25l-5.07,0.17l-1-1l0.25-6.82l8.07,0.42l1.58,0.67c0.5,0,1.25-0.58,1.91-0.58
		c1.25,0.08,2.33,0.08,3.49,0.08l3.83-0.25L42.36,96.88z"/>
	<path class="st3" d="M70.72,140.37l-1.16,0.17h-0.08l-1.66,1.16l-5.57,1.33l-0.75,0.33l-1.66,0.67l-0.92,5.9l-0.75,0.91l0.58,2.33
		l-0.92,5.57l-5.16-0.5l-2.91-1.83L52,146.28l0.83-5.24l0.92-0.92l-0.08-1.66l1.66-10.23l0.25-1.58l0.5-1.75v-1.5l2.49-11.14
		l1.5-1.75l-0.92-1.25l0.58-3.33l0.75-3.49l0.83-5.24l6.82-0.33l1.41,0.67l-0.08,2.91l0.25,0.67l0.33,0.83l2.66,12.72l-0.58,1.5
		l1,0.75l3.99,20.04v1.17l2.08,7.73l0.83,5.24l-0.5,0.67l1.25,1.33l0.92,3.58l-6.15,2h-1.08l-1.41-0.75l-1.08-10.48l-0.33-2.33
		l0.67-0.83l-0.75-0.5l-0.67-2.74L70.72,140.37z M62.15,130.06l0.08-0.08l-1,5.41l-0.08,0.58l5.41-1.66l2.33-0.58l-1.66-8.98
		l-0.33-4.32l-0.33-1.5l-1.25-8.81l-1.66,10.15l-0.83,0.42l0.42,1.33L62.15,130.06z"/>
	<path class="st3" d="M95.41,147.86l1.16-0.42l-0.25-1.91l1.41-3.66l1.5-3.74l2.08-4.74l-0.17-0.67l2.83-7.65l-1.25-2.58l-0.58-1.33
		l-0.42-0.67l-0.91-2.49v0.08l-3.66-8.15l1.25-1.41l-1.83-0.08l-3.99-9.56l3.74-2l4.49-0.75l2.41,8.32l-0.08-0.33l1.83,4.16
		l0.67,3.41l0.33,0.83l1,2.58l1.25,3.58l0.25-1l2.08-5.32l0.83-2.74l2.16-5.74l0.75-0.42l-0.5-0.42l1.5-6.57l2.41-0.17h0.83
		l5.41,2.41l-3.33,6.82l-1.33,0.92l0.67,1.41l-2.99,7.15v-0.08l-3.66,8.32v-0.17l-1,2.66l1.33,4.24l2.25,6.32l2.25,6.99l0.83,1.08
		l2.83,6.99l-1.08,0.83l1.66,0.08l0.5,0.58l0.58,3.99l-7.32,2.25l-1.91-3.58v-1.25l-2-5.32l0.08-0.75l-4.57-13.72l-2.33,8.23
		l0.08-0.08l-1.58,5.07v-0.08l-2.41,8.32l-1.33,2.74l-2.99-0.5l-5.07-1.66l1.75-4.57L95.41,147.86z"/>
	<path class="st3" d="M138.82,119.83l-0.25-16.63l0.67-1.5l-0.75-0.42l-0.42-4.16l3.91-0.25l5.41,0.33l-0.42,6.07l-0.42,2.08
		l-0.25,10.89l-0.25,4.24l0.33,3.24l0.17,2.08l-0.75,1.75l0.91,0.58v23.04l0.17,1.25l0.17,1.58l-0.08,3.08l-3.66,1.16l-1.75-0.08
		l-3.83-0.08l1.16-7.4l1-1.66l-1-1.41v-2.99v-15.55l0.25-2.58l0.25-4.57L138.82,119.83z"/>
	<path class="st3" d="M173.91,159l-2.74-0.75l-5.41-0.75l0.17-5.57v0.08l0.5-18.63l-0.5-3.24l-0.08-21.79l0.83-1.58l-0.83-1.08
		l-0.25-4.33l-0.08-3.08l3.58-1.08l4.41-1.33l5.16,7.07l0.91,2.75l2.91,2.91l2.16,3.83l6.32,8.4l-0.08-0.17l1.5,1.91l0.08,6.07
		l-1.5,2.49l-8.56,13.14l-2.91,5.9L173.91,159z M172.08,122.83l1.33,3.91l-0.33,16.47l-0.08,4.49l0.08-0.17l3.66-5.9l1.5-0.75
		l-0.67-0.75l3.49-6.74l2.74-4.57l1.5-2.41l-1.5-2.25l-0.33-2l-1.66-1.33l-8.23-13.22l-0.5-0.58l0.25,12.06L172.08,122.83z"/>
	<path class="st3" d="M223.15,104.78l-2-0.67l-0.25,0.08l-1.33,0.25l-4.57-0.17h-0.75v0.92l-0.17,2.08v8.23l-0.42,2.5l-0.92,1.5
		l0.83,0.67l0.17,3.24l3.08,0.17l3.24-0.17l4.24-0.42l1.08,2.08l-0.5,2.5l-0.17,3.41l-4.07-0.17l-5.24-0.17h-1.33l-0.33,8.57
		l0.5,2.41l-0.25,0.75l0.08,0.17l0.17,8.07l0.75,0.17l0.67,0.17l6.65-0.08l2.08-0.67l4.16,0.08l-0.17,4.16l-0.33,3.08l-1.91,0.83
		l-5.49-0.08l-4.74-0.5H213l-0.67,0.42l-6.24-0.08l-0.42-3.41l0.5-5.66l-0.08-0.92l0.08-3.83l1-2.16l-0.75-1v-1.91l-0.08-4.49
		l0.33-0.67l-0.67-8.23l0.25-3.08v-6.15l0.08-6.49l-0.08-4.24l0.92-1.41l-0.92-1.08l-0.42-5.9l3.91-0.5h4.74l1.16,0.67l3.24-0.67
		l8.23-0.08l0.08,3.24l-0.17,4.66H223.15z"/>
	<path class="st3" d="M251.42,131.97l0.08,9.06l0.25,8.32l0.25,0.75l0.08,6.9l-3.33,1.33l-5.49-0.5l0.5-13.22l1.25-3.24l-0.75-1.08
		v-3.24l-0.33-9.73l-0.17-4.32l0.67-1.66l-0.42-15.88l-0.33-7.15l6.57-2.66l13.22,11.48l0.5,2.08c0.08,0.08,1.41-0.33,1.5-0.33
		l3.99,3.66l-0.58,4.99l-3.83,4.66l-2.66,3.16l-1.41,1.75l-2.33,3.16c0.58,1.16,1.58,2.58,2.08,3.58v1.41
		c0.67,0.75,1.16,1.16,1.75,2l3.33,5.65v1.08l0.5,0.25l1.16,2.41v-0.08l1.5,3.16l2.74,2.91l-0.08,2.41l-6.74,3.74l-2-3.24
		l-2.91-6.65l0.08-1.41l-1-0.5l-3.08-5.82l-0.75-1.91l-3.33-6.74L251.42,131.97z M251.42,127.73l0.58-0.33l4.16-5.16
		c1.16-1.41,3.16-3.99,4.24-5.49l0.92-1.16l-1.66-2.08l-0.58-0.42l-7.65-7.57l-0.17,6.4v0.83l-0.67,1.58l0.33,1.5l0.17,0.5
		l0.17,0.91l0.33,7.4L251.42,127.73z"/>
	<path class="st3" d="M299.73,112.27l0.08,0.08l1.41-2.16l2.66-4.82l1.25-0.42l-0.67-1.41l4.32-7.23l4.08,0.75l2.25,1l-0.58,12.31
		l-1,1.91l0.83,1.16l0.67,26.78l-0.42,5.24l0.58,4.57l0.17,2.66l0.5,5.24l-6.9,0.33l-2-1.25l-0.25-3.58l0.58-5.49v-8.9l1-1.5
		l-0.92-0.83l-0.33-3.83l0.58-18.13l-0.33-3.08l-0.75,1.33l-1.41,1.83v0.83l-1.08,2l-1.16,2.99l-2.99,0.58l-2.25-0.08l-2-3.91
		l-0.33-0.67l-0.58-1.33l-1.75-3.41l-0.17,5.57v0.08l0.08,0.08v11.48l-0.58,1.41l0.58,11.81l0.17,12.22v3.58l-7.82,0.17l-0.67-3.16
		l1.08-3.16v0.08l-0.75-2v-1.66v-2.16l0.5-22.87l1.33-1.41l-1.33-0.92l0.08-7.48l-0.25-4.07l-0.25-4.08l0.67-1.16l-0.08-0.42
		l-0.75-1.08l-0.08-0.83l-0.08-4.66l3.58-0.25l3.08-0.42l3.74,7.57L299.73,112.27z"/>
	<path class="st3" d="M340.32,158.17l0.17-4.74l0.58-4.07l1-2l-0.83-1.08l-0.33-10.73l0.17-3.58l-0.83-3.99l-1.75-5.07l-3.24-8.23
		v0.08l-1.16-2.83l-1.41-3.83l0.5-2.66l-1.58-0.67l-1.91-3.41l0.17-2.66l4.57-1.41l2.74-0.67l1.66,4.49v1.41l0.67,2l1.75,6.24
		l1.58,3.24l0.67,2.99l-0.25,0.67l0.92,1.33l0.92,2.99l0.33-0.42l1.5-5.24l1.25-4.91l1.25-2.74l1.41-5.65l1-2.41l0.75-4.08
		l3.74,1.08l1.75,0.58l2.58,1.83l-2.33,5.99l-1.91,0.83l0.92,0.75l-0.58,1.16l-1.25,2.58l-1.25,3.66l-3.24,9.48l-2.41,6.74
		l0.08,2.41l-0.25,0.92l0.08,2.41l-0.91,2.5l1,0.83l-0.33,5.99l0.33,1.41l-0.08,3.58l0.58,5.41l-2.41,1.66L340.32,158.17z"/>
</g>
<g>
</g>
<g>
</g>
<g>
</g>
<g>
</g>
<g>
</g>
<g>
</g>
<g>
</g>
<g>
</g>
<g>
</g>
<g>
</g>
<g>
</g>
<g>
</g>
<g>
</g>
<g>
</g>
<g>
</g>
</svg>
