<?xml version="1.0" encoding="utf-8"?>
<!-- Generator: Adobe Illustrator 24.0.2, SVG Export Plug-In . SVG Version: 6.00 Build 0)  -->
<svg version="1.1" xmlns="http://www.w3.org/2000/svg" xmlns:xlink="http://www.w3.org/1999/xlink" x="0px" y="0px"
	 viewBox="0 0 972 224" style="enable-background:new 0 0 972 224;" xml:space="preserve">
<style type="text/css">
	.st0{fill:#212529;}
	.st1{fill:#FFFFFF;}
	.st2{fill:#E58625;}
	.st3{font-family:'Granada';}
	.st4{font-size:118.4473px;}
	.st5{letter-spacing:6.3;}
	.st6{fill:#E48525;}
	.st7{fill:#423C35;}
</style>
<g id="Layer_1">
	<rect x="7" y="9" class="st0" width="957" height="203"/>
</g>
<g id="Layer_5">
	<rect x="218" y="20" class="st1" width="735" height="109"/>
</g>
<g id="Layer_4">
</g>
<g id="Layer_2">
	<g>
		<path class="st2" d="M519.8,112.9l3.7-4.3V49.6h-21.8l4.5-18.4h54.6l4.5,18.4H543v58.9l3.8,4.3H519.8z"/>
		<path class="st2" d="M570.5,112.9l3.9-4.3v-73l-3.9-4.3h26.2l-3.2,3.8v73.5l3.6,4.3H570.5z"/>
		<path class="st2" d="M603.5,112.9l3.8-4.3V35.6l-3.8-4.4h27l-2,4.4l14.3,32l14.5-32l-2.1-4.4h27.1l-3.8,4.4v72.9l3.8,4.3h-26.8
			l3.7-4.3V75.4l-10.3,24.1h-12l-10.4-24.1v33.1l3.8,4.3H603.5z"/>
		<path class="st2" d="M686.8,112.9l3.8-4.3V35.8l-3.8-4.5h47.3l11.5,7.9v24.7L733.5,71l12.1,5.8v26.9l-10.5,9.1H686.8z M715.9,62
			l8.7-5.2V50h-14.9v9.3L715.9,62z M724.6,94.3v-7.9l-14.9-7.1v15H724.6z"/>
		<path class="st2" d="M753.7,112.9l3.8-4.3v-73l-3.8-4.3h47.5l6.7,22.3l-11.6-3.7h-19.7v11.3h23.6l-4.5,18.3h-19.1v14.9h22.9
			l14.2-4l-6.7,22.5H753.7z"/>
		<path class="st2" d="M817.5,112.9l3.8-4.3v-73l-3.8-4.3h48.6l10.3,9v32.1l-13.6,6.9l14.3,29l4.5,4.7h-26.6l1.3-3.9l-10.3-21.7
			l-5.6,2.9V109l3.4,3.9H817.5z M840.9,70.3l14.7-7.6V49.6h-14.7V70.3z"/>
		<path class="st2" d="M901,112.9l-12.6-9V84l17.8,10.1h16.4v-6.5l-34.2-19V39.8l10.3-8.6h30l13.5,8.6v21l-20.3-11.1h-14.2v8.4
			l34.6,19.5v26.2l-9.1,9H901z"/>
	</g>
	<g>
		<path class="st2" d="M244.4,113.1l3.8-4.3V49.8h-22.3l4.6-18.4h56l4.6,18.4h-23v58.9l3.9,4.3H244.4z"/>
		<path class="st2" d="M287.2,113.1l4.6-4.3l13.3-72.9l-3.1-4.4h41.4l-3,4.4l13.2,72.9l4.6,4.3h-27.4l3-4.3l-2.8-14.1H314l-2.9,14.1
			l3.4,4.3H287.2z M327.7,76l-4.8-26h-0.5l-5.1,26H327.7z"/>
		<path class="st2" d="M363.2,113.1l3.9-4.3V35.8l-3.9-4.4h26.7l-3.4,3.7v59.5h20.1l12.7-3.1l-6.6,21.6H363.2z"/>
		<path class="st2" d="M422.1,113.1l3.9-4.3V35.8l-3.9-4.4h26.7l-3.4,3.7v59.5h20.1l12.7-3.1l-6.7,21.6H422.1z"/>
	</g>
	<text transform="matrix(1.42 0 0 0.93 388.3896 195.5518)" class="st1 st3 st4 st5">XIDERMY</text>
	<g>
		<text transform="matrix(1.42 0 0 0.93 225.8955 193.3408)" class="st1 st3 st4 st5">T</text>
	</g>
	<g>
		<text transform="matrix(1.42 0 0 0.93 297.4756 194.5088)" class="st1 st3 st4 st5">A</text>
	</g>
</g>
<g id="Layer_3">
	<g>
		<path class="st6" d="M137.4,198.5c-12.3,0-21.4-0.1-28.7-0.1c-5.4,0-10-0.1-14.6-0.1c-4.2,0-8.1,0-12.1,0.1l-2.6,0l-0.9-2.5
			c-0.3-0.9-0.5-2.7,1.6-4.2l0,0c2-2.2,6-6.5,6.8-15.4l0.2-114H44.5c-6.8,3.5-9.8,5.1-11.8,6.2c-1.7,1-2.9,1.6-5,2.6l-6.2,3
			l8.8-50.2h160.1l3.4,20.6l4.2,30.6l-6.1-3.3c-1.2-0.6-2.4-1.3-3.8-2.1c-2.9-1.7-6.9-3.9-13.8-7.6H132l-0.2,114.3
			c0,5.4,4.7,12.7,7.3,15.4c2.2,1.6,1.9,3.4,1.6,4.2l-0.8,2.4L137.4,198.5L137.4,198.5z"/>
		<path class="st1" d="M187.5,27.4l2.9,17.7l3.3,23.6c-3.8-2.1-7.7-4.5-18.4-10.1h-1.2h-45.6l-0.2,117.8c0,7.1,5.9,15.4,8.4,18
			c0.2,0.2,0.9,0.6,0.6,0.6c-21.3,0-32.4-0.1-43.3-0.1c-3.9,0-7.8,0-12.2,0.1c0,0,0,0,0,0c-0.3,0,0.4-0.4,0.6-0.6
			c2.4-2.6,7-7.7,7.9-17.8l0.2-117.7h-46h-1.1c-13.2,6.8-12.8,7-17.5,9.2l7.1-40.6H187.5 M193.4,20.4h-5.9H33.3h-5.9l-1,5.8
			l-7.1,40.6l-2.4,13.5l12.3-5.9c2.2-1.1,3.4-1.7,5.2-2.7c1.9-1.1,4.7-2.6,10.9-5.8h38.3l-0.2,110.3c-0.7,7.3-3.9,11.1-5.7,13
			c-3.9,3.1-2.9,7.2-2.6,7.9c0.9,2.9,3.7,4.9,6.7,4.9h0l0,0l0,0c4,0,7.9-0.1,12.1-0.1c4.6,0,9.2,0,14.6,0.1c7.3,0,16.4,0.1,28.7,0.1
			c3.1,0,5.8-2,6.7-4.9c0.3-0.8,1.3-4.8-2.6-7.9c-2.2-2.5-6.1-8.7-6.1-12.8l0.2-110.8h38.1c6.4,3.4,10.1,5.5,12.9,7.1
			c1.4,0.8,2.6,1.5,3.8,2.1l12.2,6.7l-1.9-13.8l-3.3-23.6l0-0.1l0-0.1l-2.9-17.7L193.4,20.4L193.4,20.4z"/>
		<path class="st7" d="M187.5,27.4l2.9,17.7l3.3,23.6c-3.8-2.1-7.7-4.5-18.4-10.1h-1.2h-45.6l-0.2,117.8c0,7.1,5.9,15.4,8.4,18
			c0.2,0.2,0.9,0.6,0.6,0.6c-21.3,0-32.4-0.1-43.3-0.1c-3.9,0-7.8,0-12.2,0.1c0,0,0,0,0,0c-0.3,0,0.4-0.4,0.6-0.6
			c2.4-2.6,7-7.7,7.9-17.8l0.2-117.7h-46h-1.1c-13.2,6.8-12.8,7-17.5,9.2l7.1-40.6H187.5 M188.3,26.4h-0.8H33.3h-0.8l-0.1,0.8
			l-7.1,40.6l-0.3,1.9l1.8-0.8c2.1-1,3.2-1.6,4.9-2.6c2.1-1.1,5.2-2.9,12.4-6.5h0.8h44.9l-0.2,116.6c-0.9,10-5.6,15-7.6,17.2
			c0,0-0.1,0.1-0.2,0.1c-0.4,0.3-1,0.7-0.7,1.5c0.1,0.4,0.5,0.7,1,0.7c4.1,0,7.9-0.1,12.2-0.1c4.6,0,9.3,0,14.6,0.1
			c7.3,0,16.4,0.1,28.7,0.1c0.5,0,0.9-0.3,1-0.7c0.2-0.7-0.4-1.2-0.7-1.4c-0.1,0-0.1-0.1-0.2-0.1c-2.5-2.6-8.1-10.6-8.1-17.3
			l0.2-116.8h44.6h0.9c7.2,3.8,11.4,6.2,14.4,7.9c1.4,0.8,2.5,1.5,3.7,2.1l1.7,1l-0.3-2L191.4,45l-2.9-17.7L188.3,26.4L188.3,26.4z"
			/>
	</g>
	<g>
		<g>
			<path class="st7" d="M185,54.5c-2.7-1.5-12.5-4.8-12.5-4.8h-57l-0.1,127.1c0.2,4,3.4,9.2,5.2,11c0.1,0.1-18.9,0.1-18.7,0.1
				c3.9-0.1,12.1-0.1-1.4,0c-0.2,0,3.4-3.7,3.9-11.1l-1-127H46.2c0,0-7,3.3-10.3,4.9l4-17.3L182,37.7L185,54.5z"/>
		</g>
	</g>
</g>
</svg>
