<?xml version="1.0" encoding="utf-8"?>
<!-- Generator: Adobe Illustrator 24.2.3, SVG Export Plug-In . SVG Version: 6.00 Build 0)  -->
<svg version="1.1" id="Layer_1" xmlns="http://www.w3.org/2000/svg" xmlns:xlink="http://www.w3.org/1999/xlink" x="0px" y="0px"
	 viewBox="0 0 400 535" style="enable-background:new 0 0 400 535;" xml:space="preserve">
<style type="text/css">
	.st0{fill:#888888;}
	.st1{fill:#2B2726;}
	.st2{fill:#FFFFFF;}
	.st3{fill:#2B2725;}
	.st4{fill:#E48525;}
	.st5{fill:#2B2725;stroke:#2B2725;stroke-width:4;stroke-miterlimit:10;}
	.st6{fill:#FFFFFF;stroke:#2B2725;stroke-width:4;stroke-miterlimit:10;}
	.st7{font-family:'Norse-Bold';}
	.st8{font-size:83.1599px;}
	.st9{letter-spacing:7;}
</style>
<path class="st0" d="M118.36,146.51c-1.73,0.09-1.93,5.33-1.73,6.21c0.19,0.89-0.96,1.78-1.03,3.47c-0.06,1.69,0,2.66,0,2.66
	s-3.34-3.87-4.43-1.21c-1.09,2.66,0.32,5,0.32,5s-0.45,2.18-0.13,3.79c0.32,1.61,0.71,1.37,1.03,2.34c0.32,0.97,0.39,2.1-0.58,2.1
	c-0.96,0-2.57-1.05-3.47,0c-0.9,1.05-1.8,0.89-1.96,2.58c-0.16,1.69-0.93,2.38-2.06,2.46c-1.12,0.08-1.51,0.97-1.45,1.9
	c0.06,0.93,1.96,1.33,3.5,1.09c1.54-0.24,3.69,0,4.01,0.81c0.32,0.81,1.03,1.94-0.67,2.22c-1.7,0.28-3.05,0.44-3.37,0.85
	c-0.32,0.4-1.89,1.41-3.31,2.02c-1.41,0.61-1.51,2.1-1.48,2.82c0.03,0.73-0.67,0.77-0.39,1.86c0.29,1.09,0.06,1.29-1.03,2.34
	c-1.09,1.05-3.79,1.53-4.34,2.5c-0.55,0.97-2.22,1.37-2.09,2.7c0.13,1.33,1.54,1.05,2.5,1.33c0.96,0.28,0.19,0.81-0.19,0.93
	c-0.39,0.12-2.28,0.97-3.69,1.94c-1.41,0.97-4.34,0.93-4.34,0.93s2.38,1.98,7.39,1.09c5.01-0.89,11.24-4.16,11.24-4.16
	s-6.07,5.49-8.9,7.26c-2.83,1.78-4.3,2.7-4.46,3.47c-2.12-0.16-3.82-0.12-4.08,0.52c-0.26,0.65,1.32,3.11,5.56,2.95
	c-2.63,4.32-7.9,7.59-7.9,7.59s5.65,2.95,13.33-6.13c-1.54,2.86-1.03,3.95-2.41,5.77c-1.38,1.82-2.54,4.04-3.89,4.36
	c-1.35,0.32-3.37,1.86-3.69,3.27c-0.32,1.41-0.51,4.36-1.54,5.04c-1.03,0.69-1.64,0.28-2.54,1.74c-0.9,1.45-2.83,1.94-3.28,2.86
	c-0.45,0.93,0.77,2.58,3.31,2.02c2.54-0.56,5.46-2.95,6.29-2.54c0.83,0.4-1.25,1.6-1.96,2.66c-0.71,1.06,0.22,1.38-1.03,2.14
	c-1.25,0.77-1.93,2.26-4.24,3.03c-2.31,0.77-2.54,1.57-3.63,2.38c-1.09,0.81-2.83,0.69-3.47,1.41c-0.64,0.73-0.51,2.46,1,2.74
	c1.51,0.28,3.56-0.28,5.88,0c2.31,0.28,3.31-0.28,4.91-0.73c1.61-0.44,3.44-1.61,5.27-2.62c1.83-1.01,2.5-0.97,3.76-2.54
	c1.25-1.57,3.69-4.24,3.69-4.24s-2.06,3.79-3.31,5.89c-1.25,2.1-4.21,5.16-6.42,6.58c-2.22,1.41-3.44,2.86-5.43,3.51
	c-1.99,0.65-3.37,2.1-4.08,4.44c-0.71,2.34-7.32,6.38-9.6,6.17c-2.28-0.2-3.5,0.48-3.53,1.13c-0.03,0.65,0.45,2.58,3.28,2.66
	c2.83,0.08,3.56,0.73,3.56,0.73s-2.31,1.69-2.22,2.82c0.1,1.13,3.37,0.56,4.62,0.52c1.25-0.04,3.72-1.21,4.95-1.21
	c1.22,0,2.79-0.16,2.79-0.16s-0.45,1.21,0.26,1.82c0.71,0.61-2.12,5.77-3.15,6.25c-1.03,0.48-2.18,0.97-2.76,2.46
	c-0.58,1.49-7.19,4.72-7.84,5.16c-0.64,0.44-2.92,1.09-2.86,2.06c0.06,0.97,0.51,2.38,4.53,1.98c-0.1,1.17,0.74,1.69,2.28,1.41
	c1.54-0.28,1.93,0.56,1.93,1.53s1.16,1.33,2.57,0.97c1.41-0.36,4.11-0.65,4.11-0.65s-1.64,1.86-4.24,2.66
	c-2.6,0.81-5.72,4.8-7.84,5.12c4.14,1.17,14.45-2.74,14.45-2.74s-9.22,5.85-12.23,6.34c-3.02,0.48-10.69,1.01-13.84,0.4
	c-3.15-0.61-5.39,1.78-6.9,1.78c-1.51,0-1.41,1.33,1.22,2.18c2.63,0.85,6,2.5,7.71,3.51c1.7,1.01,11.85-0.44,11.85-0.44
	s-5.59,3.83-7.19,5.33c-1.61,1.49-1.93,2.95-0.32,2.82c1.61-0.12,1.35,0.73,2.89,0.73c1.54,0,3.79-1.61,5.49-1.09
	c1.7,0.52,3.56-1.29,4.66-1.29s0.42,0.97,3.28,0.97c2.86,0,4.37-0.81,5.56-1.49c1.19-0.69,3.79-0.08,5.72-0.89
	c1.93-0.81,5.88-4.88,5.88-4.88s-5.01,7.06-6.68,8.27c-1.67,1.21-2.76,0.72-3.51,0.93s-2.84,2.66-4.24,3.39
	c-1.4,0.73-5.01,1.39-5.83,2.3c-0.82,0.91-2.67,1.69-3.61,2.18c-0.94,0.48-0.89,1.54-2.94,1.69c-2.05,0.15-2.91-0.51-4.09,1.48
	c-1.18,2-4.21,1.18-4.84,1.88c-0.63,0.7-3.64-0.51-4.17,0.09c-0.53,0.61,1.01,3,3.01,3.51c2,0.51,2.34,2.39,5.73,1.15
	c3.4-1.24,2.19,1.23,4.99,0.42c2.79-0.81,5.08-0.78,5.08-0.78s-2.48,4.18-4.29,4.27c-1.81,0.09-4.02,0.15-4.24,1.48
	c-0.22,1.33,2.24,2.81,4.21,2.09c1.97-0.73,2.82-1.48,3.95-0.7s3.81,1.94,6.72,1.03c2.91-0.91,2.84-0.39,4.84-2.06
	c2-1.66,8.65-5.27,15.49-16.34c-3.71,9.32-6.79,14.41-12.09,17.73c0.92,0.08,3.13-0.44,3.13-0.44s-1.8,2.62-0.58,3.75
	c1.22,1.13,3.53-1.57,5.2-3.15c1.67-1.57,3.95-4.96,3.95-4.96s-0.39,3.43-0.9,5.08c-0.51,1.65,0.58,2.58,2.25,2.02
	c1.67-0.56,5.94-5.45,5.94-5.45l-0.55,21.63H99.28l-3.85,1.86h50.29l-4.37-2.5l-15.8,0.4c0,0,0.39-4.84-0.13-8.8
	c-0.51-3.95-0.9-12.67-0.9-12.67s4.75,5.57,7.64,4.92c2.89-0.65,0.13-3.15-0.19-6.86c2.95,4.44,4.82,4.84,5.65,6.13
	c0.83,1.29,3.08,2.26,3.85,1.53c0.77-0.73-1.09-3.79-1.09-3.79l3.79,1.05c0,0-4.75-3.63-6.68-6.21c-1.93-2.58-6.29-12.27-6.29-12.27
	s3.92,6.86,8.67,10.57s7.06,6.38,10.79,7.42c3.73,1.05,6.04,0.08,7.64-0.56c1.61-0.65,1.8-0.61,3.63,0.08
	c1.83,0.69,4.69,0,4.59-1.82c-0.1-1.82-2.06-1.53-3.85-1.57c-1.8-0.04-4.11-4.08-4.11-4.08s2.54,0.04,4.21,0.69
	c1.67,0.65,1.32-0.44,3.53-0.44c2.22,0,3.05,0.77,4.62-0.12c1.57-0.89,6.29-2.58,5.97-4.24c-0.32-1.65-1.48,0.04-3.56-0.08
	c-2.09-0.12-3.73-1.98-5.01-1.57c-0.67-1.82-2.47-3.35-3.98-2.5c-1.51,0.85-2.7-0.04-5.23-2.34c-2.54-2.3-4.01-1.49-5.46-2.42
	c-1.45-0.93-3.6-2.38-6.13-3.63c-2.54-1.25-2.41,0.12-3.76-0.61c-1.35-0.73-5.3-5.37-6.87-8.15c5.07,4.88,10.44,4.16,12.23,5.25
	c1.8,1.09,3.28,2.02,6.07,0.93c2.79-1.09,2.63-0.48,4.5,0c1.86,0.48,3.63,0.73,5.88,1.05c2.25,0.32,5.01-0.12,5.43-1.45
	c0.42-1.33-8.22-6.86-8.22-6.86s5.81,1.41,9.38,0.24s11.43-4.32,11.5-5.45c0.06-1.13-1.19-1.65-5.33-2.1
	c-4.14-0.44-14.42,0.65-16.51,0c-2.09-0.65-12.75-7.02-12.75-7.02s11.18,4.08,16.54,3.27c-4.01-2.1-8.51-5.57-9.92-5.73
	c-1.41-0.16-2.76-1.82-2.76-1.82s3.79,0.69,5.04,0.65c1.25-0.04,0.13-2.14,1.57-2.7c1.45-0.56,2.63,0.4,3.47-0.44
	c0.83-0.85-0.32-1.13,0.19-1.41c0.51-0.28,4.37,0.52,4.34-1.53c-0.03-2.06-6.97-4.2-10.12-6.86c-3.15-2.66-2.12-3.15-4.08-3.07
	c-1.96,0.08-4.08-6.21-4.08-6.21s5.11-0.24,8.57,0.2c3.47,0.44,8.77-0.36,8.48-2.22c-0.29-1.86-5.33-0.61-5.62-2.54
	c-0.29-1.94,1.96-0.81,2.6-1.61c0.64-0.81-0.96-3.27-2.89-3.35c-1.93-0.08-2.6-0.12-3.76-0.77c-1.16-0.65-1.01-1.55-2.04-1.69
	c-1.03-0.14-1.46,0.02-1.56-0.46c-0.1-0.48,0.64-3.01-0.02-4.06c-0.66-1.05-1.64-0.28-2.07-0.56c-0.43-0.28-1.67-3.39-6.58-5.53
	c-4.91-2.14-10.73-13.23-11.53-15.49c4.01,4.44,3.89,3.95,4.82,5.57c0.93,1.61,3.05,2.74,4.27,3.91c1.22,1.17,3.21,3.59,4.56,3.63
	c1.35,0.04,2.31-0.56,3.53-0.16c1.22,0.4,2.12-0.2,3.5,0.04c1.38,0.24,1.8,0.69,2.92,0.12c1.12-0.56,2.15-0.16,2.25-1.09
	c0.1-0.93-0.96-1.74-2.12-2.42c-1.16-0.69-1.32-1.61-2.54-2.34c-1.22-0.73-1.45-0.08-3.31-1.49c-1.86-1.41-2.18-1.05-2.6-1.41
	c-0.42-0.36-1.83-2.91-2.79-3.75c-0.96-0.85,0.22-1.57,1.19-0.81c0.96,0.77,2.5,1.61,3.79,1.65c1.28,0.04,4.37,0.2,4.59-1.17
	c0.22-1.37-2.09-1.21-3.11-2.86c-1.03-1.65-0.74-1.49-1.99-1.74s-1.99-2.42-2.15-3.23c-0.16-0.81-0.26-3.47-1.35-4.36
	c-1.09-0.89-3.5-1.09-5.17-2.02c-1.67-0.93-4.82-2.95-5.52-3.99c1.36-0.26,0.21-3.35-0.3-3.89c3.49,2.97,7.78,5.08,9.63,5.24
	c1.85,0.15,4.21-0.48,4.21-0.48s-6.14-3.78-8.07-6.9c1.78-0.64,3.49,0.21,4.48-0.91c0.99-1.12,1.64-0.24,1.85-1.66
	c0.22-1.42-1.95-1.36-3.25-1.12c-1.45-1.82-5.44-4.63-8.24-6.05c-2.79-1.42-5.32-4.78-5.32-4.78s1.71-0.48,2.72,0.51
	c1.01,1,5.92,2.69,6.79,0.79c0.87-1.91-1.59-1.72-3.37-7.05c-1.78-5.33-4.97-11.13-10.11-10.32c-5.14,0.81-12.07,6.21-12.07,6.21
	s8.16-8.8,12.14-10.01c3.98-1.21,5.52,1.13,7-0.89c1.48-2.02-1.22-2.02-2.76-3.63c-1.54-1.61-1.09-1.53,0-2.82
	c1.09-1.29,1.35-4.28-0.64-4.2c-1.99,0.08-6.23,3.71-7.39,6.94c1.22-5.33,2.31-11.7,1.28-11.86c-1.03-0.16-2.18,0.24-2.18,0.24
	s0.26-1.5-0.42-2.65c1.88-2.66,2.02-8.93,0.79-9.71c-1.23-0.79-2.99,3.09-2.99,3.09S119.57,146.45,118.36,146.51z"/>
<path class="st0" d="M281.11,146.51c-1.74,0.09-1.94,5.33-1.74,6.21c0.19,0.89-0.97,1.78-1.03,3.47c-0.06,1.69,0,2.66,0,2.66
	s-3.36-3.87-4.46-1.21c-1.1,2.66,0.32,5,0.32,5s-0.45,2.18-0.13,3.79c0.32,1.61,0.71,1.37,1.03,2.34c0.32,0.97,0.39,2.1-0.58,2.1
	s-2.58-1.05-3.49,0c-0.9,1.05-1.81,0.89-1.97,2.58s-0.94,2.38-2.07,2.46c-1.13,0.08-1.52,0.97-1.45,1.9
	c0.06,0.93,1.97,1.33,3.52,1.09c1.55-0.24,3.71,0,4.04,0.81c0.32,0.81,1.03,1.94-0.68,2.22c-1.71,0.28-3.07,0.44-3.39,0.85
	c-0.32,0.4-1.91,1.41-3.33,2.02c-1.42,0.61-1.52,2.1-1.49,2.82c0.03,0.73-0.68,0.77-0.39,1.86c0.29,1.09,0.06,1.29-1.03,2.34
	c-1.1,1.05-3.81,1.53-4.36,2.5c-0.55,0.97-2.23,1.37-2.1,2.7c0.13,1.33,1.55,1.05,2.52,1.33c0.97,0.28,0.19,0.81-0.19,0.93
	c-0.39,0.12-2.29,0.97-3.71,1.94c-1.42,0.97-4.36,0.93-4.36,0.93s2.39,1.98,7.43,1.09c5.04-0.89,11.3-4.16,11.3-4.16
	s-6.1,5.49-8.95,7.26c-2.84,1.78-4.33,2.7-4.49,3.47c-2.13-0.16-3.84-0.12-4.1,0.52c-0.26,0.65,1.32,3.11,5.59,2.95
	c-2.65,4.32-7.95,7.59-7.95,7.59s5.68,2.95,13.4-6.13c-1.55,2.86-1.03,3.95-2.42,5.77c-1.39,1.82-2.55,4.04-3.91,4.36
	c-1.36,0.32-3.39,1.86-3.71,3.27c-0.32,1.41-0.52,4.36-1.55,5.04c-1.03,0.69-1.65,0.28-2.55,1.74c-0.9,1.45-2.84,1.94-3.29,2.86
	c-0.45,0.93,0.78,2.58,3.33,2.02c2.55-0.56,5.49-2.95,6.33-2.54c0.84,0.4-1.26,1.6-1.97,2.66c-0.71,1.06,0.23,1.38-1.03,2.14
	c-1.26,0.77-1.94,2.26-4.26,3.03c-2.33,0.77-2.55,1.57-3.65,2.38c-1.1,0.81-2.84,0.69-3.49,1.41c-0.65,0.73-0.52,2.46,1,2.74
	c1.52,0.28,3.59-0.28,5.91,0c2.33,0.28,3.33-0.28,4.94-0.73c1.61-0.44,3.46-1.61,5.3-2.62c1.84-1.01,2.52-0.97,3.78-2.54
	c1.26-1.57,3.71-4.24,3.71-4.24s-2.07,3.79-3.33,5.89c-1.26,2.1-4.23,5.16-6.46,6.58c-2.23,1.41-3.46,2.86-5.46,3.51
	c-2,0.65-3.39,2.1-4.1,4.44c-0.71,2.34-7.36,6.38-9.66,6.17c-2.29-0.2-3.52,0.48-3.55,1.13c-0.03,0.65,0.45,2.58,3.29,2.66
	c2.84,0.08,3.59,0.73,3.59,0.73s-2.33,1.69-2.23,2.82c0.1,1.13,3.39,0.56,4.65,0.52c1.26-0.04,3.75-1.21,4.97-1.21
	s2.81-0.16,2.81-0.16s-0.45,1.21,0.26,1.82c0.71,0.61-2.13,5.77-3.17,6.25c-1.03,0.48-2.2,0.97-2.78,2.46
	c-0.58,1.49-7.23,4.72-7.88,5.16c-0.65,0.44-2.94,1.09-2.87,2.06c0.06,0.97,0.52,2.38,4.55,1.98c-0.1,1.17,0.74,1.69,2.29,1.41
	c1.55-0.28,1.94,0.56,1.94,1.53s1.16,1.33,2.58,0.97c1.42-0.36,4.13-0.65,4.13-0.65s-1.65,1.86-4.26,2.66
	c-2.62,0.81-5.75,4.8-7.88,5.12c4.17,1.17,14.53-2.74,14.53-2.74s-9.27,5.85-12.31,6.34c-3.04,0.48-10.76,1.01-13.92,0.4
	c-3.17-0.61-5.43,1.78-6.94,1.78c-1.52,0-1.42,1.33,1.23,2.18c2.65,0.85,6.04,2.5,7.75,3.51c1.71,1.01,11.92-0.44,11.92-0.44
	s-5.62,3.83-7.23,5.33c-1.61,1.49-1.94,2.95-0.32,2.82c1.61-0.12,1.36,0.73,2.91,0.73c1.55,0,3.81-1.61,5.52-1.09
	c1.71,0.52,3.59-1.29,4.68-1.29c1.1,0,0.42,0.97,3.29,0.97c2.87,0,4.39-0.81,5.59-1.49c1.2-0.69,3.81-0.08,5.75-0.89
	c1.94-0.81,5.91-4.88,5.91-4.88s-5.04,7.06-6.72,8.27c-1.68,1.21-2.78,0.72-3.53,0.93c-0.75,0.21-2.86,2.66-4.26,3.39
	c-1.4,0.73-5.04,1.39-5.86,2.3c-0.82,0.91-2.69,1.69-3.63,2.18c-0.94,0.48-0.9,1.54-2.96,1.69c-2.06,0.15-2.93-0.51-4.12,1.48
	c-1.19,2-4.24,1.18-4.87,1.88c-0.63,0.7-3.66-0.51-4.19,0.09c-0.53,0.61,1.02,3,3.03,3.51c2.01,0.51,2.35,2.39,5.77,1.15
	c3.42-1.24,2.2,1.23,5.01,0.42c2.81-0.81,5.11-0.78,5.11-0.78s-2.5,4.18-4.31,4.27c-1.82,0.09-4.05,0.15-4.26,1.48
	c-0.22,1.33,2.25,2.81,4.24,2.09c1.99-0.73,2.83-1.48,3.97-0.7s3.83,1.94,6.76,1.03c2.93-0.91,2.86-0.39,4.87-2.06
	c2.01-1.66,8.7-5.27,15.58-16.34c-3.73,9.32-6.83,14.41-12.16,17.73c0.92,0.08,3.15-0.44,3.15-0.44s-1.81,2.62-0.58,3.75
	c1.23,1.13,3.55-1.57,5.23-3.15c1.68-1.57,3.97-4.96,3.97-4.96s-0.39,3.43-0.9,5.08c-0.52,1.65,0.58,2.58,2.26,2.02
	c1.68-0.56,5.98-5.45,5.98-5.45l-0.55,21.63h-15.18l-3.88,1.86h50.58l-4.39-2.5l-15.89,0.4c0,0,0.39-4.84-0.13-8.8
	s-0.9-12.67-0.9-12.67s4.78,5.57,7.69,4.92c2.91-0.65,0.13-3.15-0.19-6.86c2.97,4.44,4.84,4.84,5.68,6.13
	c0.84,1.29,3.1,2.26,3.88,1.53c0.78-0.73-1.1-3.79-1.1-3.79l3.81,1.05c0,0-4.78-3.63-6.72-6.21c-1.94-2.58-6.33-12.27-6.33-12.27
	s3.94,6.86,8.72,10.57c4.78,3.71,7.11,6.38,10.85,7.42c3.75,1.05,6.07,0.08,7.69-0.56c1.61-0.65,1.81-0.61,3.65,0.08
	c1.84,0.69,4.72,0,4.62-1.82c-0.1-1.82-2.07-1.53-3.88-1.57c-1.81-0.04-4.13-4.08-4.13-4.08s2.55,0.04,4.23,0.69
	c1.68,0.65,1.32-0.44,3.55-0.44s3.07,0.77,4.65-0.12c1.58-0.89,6.33-2.58,6.01-4.24c-0.32-1.65-1.49,0.04-3.59-0.08
	c-2.1-0.12-3.75-1.98-5.04-1.57c-0.68-1.82-2.49-3.35-4.01-2.5c-1.52,0.85-2.71-0.04-5.26-2.34c-2.55-2.3-4.04-1.49-5.49-2.42
	c-1.45-0.93-3.62-2.38-6.17-3.63c-2.55-1.25-2.42,0.12-3.78-0.61c-1.36-0.73-5.33-5.37-6.91-8.15c5.1,4.88,10.5,4.16,12.31,5.25
	c1.81,1.09,3.29,2.02,6.1,0.93c2.81-1.09,2.65-0.48,4.52,0c1.87,0.48,3.65,0.73,5.91,1.05c2.26,0.32,5.04-0.12,5.46-1.45
	c0.42-1.33-8.27-6.86-8.27-6.86s5.85,1.41,9.43,0.24s11.5-4.32,11.56-5.45c0.06-1.13-1.2-1.65-5.36-2.1c-4.17-0.44-14.5,0.65-16.6,0
	c-2.1-0.65-12.82-7.02-12.82-7.02s11.24,4.08,16.63,3.27c-4.04-2.1-8.56-5.57-9.98-5.73c-1.42-0.16-2.78-1.82-2.78-1.82
	s3.81,0.69,5.07,0.65c1.26-0.04,0.13-2.14,1.58-2.7c1.45-0.56,2.65,0.4,3.49-0.44c0.84-0.85-0.32-1.13,0.19-1.41
	c0.52-0.28,4.39,0.52,4.36-1.53s-7.01-4.2-10.17-6.86c-3.17-2.66-2.13-3.15-4.1-3.07c-1.97,0.08-4.1-6.21-4.1-6.21
	s5.14-0.24,8.62,0.2c3.49,0.44,8.82-0.36,8.53-2.22c-0.29-1.86-5.36-0.61-5.65-2.54c-0.29-1.94,1.97-0.81,2.62-1.61
	c0.65-0.81-0.97-3.27-2.91-3.35c-1.94-0.08-2.62-0.12-3.78-0.77c-1.16-0.65-1.02-1.55-2.05-1.69c-1.03-0.14-1.47,0.02-1.57-0.46
	s0.65-3.01-0.02-4.06c-0.66-1.05-1.65-0.28-2.08-0.56c-0.44-0.28-1.68-3.39-6.62-5.53c-4.94-2.14-10.79-13.23-11.6-15.49
	c4.04,4.44,3.91,3.95,4.84,5.57c0.94,1.61,3.07,2.74,4.3,3.91c1.23,1.17,3.23,3.59,4.59,3.63c1.36,0.04,2.33-0.56,3.55-0.16
	c1.23,0.4,2.13-0.2,3.52,0.04c1.39,0.24,1.81,0.69,2.94,0.12c1.13-0.56,2.16-0.16,2.26-1.09c0.1-0.93-0.97-1.74-2.13-2.42
	c-1.16-0.69-1.32-1.61-2.55-2.34c-1.23-0.73-1.45-0.08-3.33-1.49c-1.87-1.41-2.2-1.05-2.62-1.41c-0.42-0.36-1.84-2.91-2.81-3.75
	c-0.97-0.85,0.23-1.57,1.2-0.81c0.97,0.77,2.52,1.61,3.81,1.65c1.29,0.04,4.39,0.2,4.62-1.17c0.23-1.37-2.1-1.21-3.13-2.86
	c-1.03-1.65-0.74-1.49-2-1.74c-1.26-0.24-2-2.42-2.16-3.23c-0.16-0.81-0.26-3.47-1.36-4.36c-1.1-0.89-3.52-1.09-5.2-2.02
	c-1.68-0.93-4.84-2.95-5.56-3.99c1.37-0.26,0.21-3.35-0.3-3.89c3.51,2.97,7.82,5.08,9.69,5.24c1.87,0.15,4.24-0.48,4.24-0.48
	s-6.18-3.78-8.12-6.9c1.79-0.64,3.51,0.21,4.51-0.91c0.99-1.12,1.65-0.24,1.87-1.66c0.22-1.42-1.96-1.36-3.27-1.12
	c-1.45-1.82-5.47-4.63-8.28-6.05c-2.81-1.42-5.35-4.78-5.35-4.78s1.72-0.48,2.74,0.51c1.02,1,5.96,2.69,6.83,0.79
	c0.87-1.91-1.6-1.72-3.39-7.05c-1.79-5.33-5-11.13-10.17-10.32c-5.17,0.81-12.14,6.21-12.14,6.21s8.2-8.8,12.21-10.01
	c4.01-1.21,5.56,1.13,7.04-0.89c1.49-2.02-1.23-2.02-2.78-3.63c-1.55-1.61-1.1-1.53,0-2.82c1.1-1.29,1.36-4.28-0.65-4.2
	c-2,0.08-6.27,3.71-7.43,6.94c1.23-5.33,2.33-11.7,1.29-11.86c-1.03-0.16-2.2,0.24-2.2,0.24s0.26-1.5-0.42-2.65
	c1.89-2.66,2.03-8.93,0.8-9.71c-1.24-0.79-3,3.09-3,3.09S282.33,146.45,281.11,146.51z"/>
<path class="st1" d="M311.07,319.29c-10.37,0.98-15.59-1.24-15.59-1.24s1.15-2.23-0.19-3.99c-1.34-1.77-5.28,0-14.5-5.11
	c-9.22-5.11-13.12-14.63-13.12-14.63s2.1,0.34,6.73,3.14c4.63,2.8,7.35,2.06,8.97,1.57c1.62-0.49-0.38-3.49,1.53-3.49
	c1.91,0,6.11,4.12,9.78,3.98c3.67-0.15,4.34-0.2,5.34-1.37c1-1.18,3.48-1.82,5.2-3.04c1.72-1.23,3.1-5.5-1.05-3.98
	c-4.15,1.52-8.64-3.04-14.84-6.14c-6.2-3.09-8.79-7.33-8.79-7.33s3.56,0,7.63-0.85c4.07-0.85,5.85-5.17,2.61-5.69
	c-3.24-0.52-9.16-3.73-14.5-7.79c-5.34-4.06-11.7-8.92-17.91-13.19c6.2-0.54,11.26,0.83,13.65,2.45c2.39,1.62,4.15,1.82,7.2-0.39
	c6.2,0.1,8.21-3.04,8.11-4.71c-0.1-1.67-2.81-2.16-4.15-2.16c-1.33,0-3.39-1.37-6.64-2.95c-2.29-2.5-8.02-7.36-8.02-7.36
	s-0.81-5.45-3.63-9.33c-2.81-3.88-6.49-3.29-9.35-7.46c2.62,2.45,9.3,0.29,9.3,0.29s5.15,3.53,9.3,3.93c4.15,0.39,7.3,0,8.54-2.21
	c1.24-2.21-0.05-3.44-2.29-3.78c-0.38-1.37-2.58-1.42-4.87-3.09c-0.95-2.36-4.44-4.03-4.96-4.91c-0.52-0.88-3.48-4.61-7.2-6.33
	c-3.72-1.72-6.31-5.04-6.31-5.04s6.04,2.88,8.14,2.95c2.1,0.07,3.37,0.2,4.96-1.24c2.23,0,2.67-1.31,2.48-2.88
	c-0.19-1.57-2.29-0.92-2.99-2.03c-0.7-1.11-3.31-1.31-6.62-3.73c-3.31-2.42-3.94-6.87-3.94-6.87s10.62,0,11.58-0.79
	s0.95-1.96,0.89-3.67c-0.06-1.7-0.76-2.75-3.31-2.88c-2.54-0.13-1.84-1.24-3.69-2.36s-2.61-0.65-4.2-2.49
	c-1.59-1.83-3.05-3.01-5.03-4.06c-1.97-1.05-3.5-2.68-5.34-6.41c1.78-0.98,1.4-2.78,1.4-2.78s3.63-0.03,5.22-0.03
	c1.59,0,3.69,0.39,5.41-1.64c1.72-2.03,0.51-4.97-1.72-5.17c-2.23-0.2-4.96-0.72-7.12-3.47c-2.16-2.75-4.77-4.12-6.55-5.96
	s-3.5-1.44-5.15-3.34c-1.65-1.9-2.99-5.3-2.99-5.3s5.92,2.88,7.95,3.27c2.04,0.39,2.29,0.59,7.06,2.81c4.77,2.23,6.74,1.31,7.38,0
	c0.64-1.31-0.64-2.81-2.29-4.32c-1.65-1.51-3.44-3.47-6.55-4.91c-3.12-1.44-4.58-4.82-4.58-4.82s1.15-0.61,3.31-0.22
	c2.16,0.39,4.33,0.39,4.96-1.24c0.64-1.64-0.32-2.81-2.93-4.19c-2.61-1.37-5.47-4.12-8.14-5.37c-2.67-1.24-2.16-2.29-6.68-5.3
	c-4.52-3.01-11.58-12.37-11.58-12.37s1.59,0.65,3.5,1.51c1.91,0.85,2.29,0,6.11-0.33c3.82-0.33,3.69-0.72,4.33-3.08
	s-4.01-5.17-7.51-7.46c-3.5-2.29-3.56-3.99-4.96-6.94c-1.4-2.95-4.96-3.67-7.76-9.29c3.18,1.57,6.74,1.05,7.63-1.64
	c0.89-2.68-3.05-6.55-9.8-13.48c2.29,1.31,6.11,0.79,5.85-2.49c-0.25-3.27-11.83-6.55-12.47-11.13c-0.64-4.58-2.29-4.45-3.05-9.03
	c-0.76-4.58-5.22-6.15-5.22-13.48c0-7.33-2.29-15.45-4.16-15.45c-1.87,0-4.16,8.12-4.16,15.45c0,7.33-4.45,8.9-5.22,13.48
	c-0.76,4.58-2.42,4.45-3.05,9.03c-0.64,4.58-12.21,7.85-12.47,11.13c-0.25,3.27,3.56,3.8,5.85,2.49c-6.74,6.94-10.69,10.8-9.8,13.48
	c0.89,2.68,4.45,3.21,7.63,1.64c-2.8,5.63-6.36,6.35-7.76,9.29c-1.4,2.95-1.47,4.65-4.96,6.94c-3.5,2.29-8.14,5.11-7.51,7.46
	c0.64,2.36,0.51,2.75,4.33,3.08c3.82,0.33,4.2,1.18,6.11,0.33c1.91-0.85,3.5-1.51,3.5-1.51s-7.06,9.36-11.58,12.37
	c-4.52,3.01-4.01,4.06-6.68,5.3c-2.67,1.24-5.53,3.99-8.14,5.37c-2.61,1.37-3.56,2.55-2.93,4.19c0.64,1.64,2.8,1.64,4.96,1.24
	c2.16-0.39,3.31,0.22,3.31,0.22s-1.46,3.38-4.58,4.82c-3.12,1.44-4.9,3.4-6.55,4.91c-1.65,1.51-2.93,3.01-2.29,4.32
	c0.64,1.31,2.61,2.23,7.38,0c4.77-2.23,5.03-2.42,7.06-2.81c2.04-0.39,7.95-3.27,7.95-3.27s-1.34,3.4-2.99,5.3
	c-1.65,1.9-3.37,1.51-5.15,3.34c-1.78,1.83-4.39,3.21-6.55,5.96c-2.16,2.75-4.9,3.27-7.12,3.47c-2.23,0.2-3.44,3.14-1.72,5.17
	c1.72,2.03,3.82,1.64,5.41,1.64c1.59,0,5.22,0.03,5.22,0.03s-0.38,1.8,1.4,2.78c-1.84,3.73-3.37,5.37-5.34,6.41
	c-1.97,1.05-3.44,2.23-5.03,4.06c-1.59,1.83-2.35,1.37-4.2,2.49c-1.84,1.11-1.15,2.23-3.69,2.36c-2.54,0.13-3.24,1.18-3.31,2.88
	c-0.06,1.7-0.06,2.88,0.89,3.67c0.95,0.79,11.58,0.79,11.58,0.79s-0.64,4.45-3.94,6.87c-3.31,2.42-5.92,2.62-6.62,3.73
	c-0.7,1.11-2.8,0.46-2.99,2.03c-0.19,1.57,0.25,2.88,2.48,2.88c1.59,1.44,2.86,1.31,4.96,1.24c2.1-0.07,8.14-2.95,8.14-2.95
	s-2.59,3.32-6.31,5.04c-3.72,1.72-6.68,5.45-7.2,6.33c-0.52,0.88-4.01,2.55-4.96,4.91c-2.29,1.67-4.48,1.72-4.87,3.09
	c-2.24,0.34-3.53,1.57-2.29,3.78c1.24,2.21,4.39,2.6,8.54,2.21c4.15-0.39,9.3-3.93,9.3-3.93s6.68,2.16,9.3-0.29
	c-2.86,4.17-6.54,3.58-9.35,7.46c-2.81,3.88-3.63,9.33-3.63,9.33s-5.73,4.86-8.02,7.36c-3.24,1.57-5.31,2.95-6.64,2.95
	c-1.33,0-4.05,0.49-4.15,2.16c-0.1,1.67,1.91,4.81,8.11,4.71c3.05,2.21,4.82,2.01,7.2,0.39c2.39-1.62,7.44-2.99,13.65-2.45
	c-6.2,4.27-12.56,9.13-17.91,13.19c-5.34,4.06-11.26,7.27-14.5,7.79c-3.24,0.52-1.46,4.84,2.61,5.69c4.07,0.85,7.63,0.85,7.63,0.85
	s-2.59,4.24-8.79,7.33c-6.2,3.09-10.69,7.66-14.84,6.14c-4.15-1.52-2.77,2.75-1.05,3.98c1.72,1.23,4.2,1.87,5.2,3.04
	c1,1.18,1.67,1.23,5.34,1.37c3.67,0.15,7.87-3.98,9.78-3.98c1.91,0-0.1,2.99,1.53,3.49c1.62,0.49,4.34,1.23,8.97-1.57
	c4.63-2.8,6.73-3.14,6.73-3.14s-3.9,9.52-13.12,14.63c-9.22,5.11-13.17,3.34-14.5,5.11c-1.34,1.77-0.19,3.99-0.19,3.99
	s-5.22,2.23-15.59,1.24c-10.37-0.98-1.53,4.91-0.32,6.02c1.21,1.11,7.57,4.39,10.94,4.91c3.37,0.52,11.96,2.03,11.96,2.03
	s-5.34,4.91-4.58,7.33c0.76,2.42,8.65,0.59,13.55,0c4.9-0.59,12.15-0.79,17.56-5.56c-4.58,4.12-5.53,6.35-3.63,7.59
	c1.91,1.24,13.23,0.59,20.55-1.7c-3.12,4.19-2.67,5.63-0.76,6.94c1.91,1.31,17.94,0,17.94,0s-1.78,2.42-0.45,3.47
	c1.34,1.05,16.16-1.18,19.27-3.8L188,365.11c0,0-72.27,0.46-80.03,0.59c-7.76,0.13-15.52,5.24-15.52,5.24H198.9h106.45
	c0,0-7.76-5.11-15.52-5.24c-7.76-0.13-80.03-0.59-80.03-0.59l-0.76-18.59c3.12,2.62,17.94,4.84,19.28,3.8s-0.45-3.47-0.45-3.47
	s16.03,1.31,17.94,0c1.91-1.31,2.35-2.75-0.76-6.94c7.32,2.29,18.64,2.95,20.55,1.7c1.91-1.24,0.95-3.47-3.63-7.59
	c5.41,4.78,12.66,4.97,17.56,5.56c4.9,0.59,12.79,2.42,13.55,0c0.76-2.42-4.58-7.33-4.58-7.33s8.59-1.51,11.96-2.03
	c3.37-0.52,9.73-3.8,10.94-4.91C312.6,324.2,321.44,318.31,311.07,319.29z"/>
<g>
	<g>
		<path d="M244.19,378.33c0,0-4.52,14.88,9,17.27c11,1.95,12.17-7.05,12.17-7.05s-4.18-13.21,12.09-18.11
			c16.29-4.9,24.84,0.52,38.72-7.59c13.37-7.82,17.21-15.05,19.07-27.27c1.88-12.22,1.02-33.34,0.71-35.23c0,0-2.38-0.9-3.32,6.18
			c-0.95,7.09-1.22,16.3-2.87,20.11c-0.93,2.2-2.41,7.09-4.23,11.53c-1.31,3.23-2.79,6.21-4.38,7.77
			c-3.76,3.66-13.47,10.67-26.1,9.88c-0.77-0.05,16.12-9.87,16.12-9.87s13.75-7.56,17.42-8.64c3.68-1.09,25.89-15.17,31.33-22.32
			c5.42-7.17,18.04-14.02,19.13-15.03c1.09-1.06,9.22-8.39,12.51-17.2c3.38-9,5.61-23.62,5.41-28.75c-0.18-5.13-2.19-1.4-2.19-1.4
			s-5.17,19.18-6.67,21.85c-1.49,2.68-5.41,11.2-11.12,15.82c-5.68,4.64-9.34,7-10.89,7.24c-1.57,0.27-2.08,0.08-0.62-4.71
			c1.62-5.3,5.11-24.03,5.47-25.85c0.34-1.84,3.8-17.22,3.18-22.91c-0.34-3.34,2.3-21.47,2.74-22.84c0.42-1.35,4.02-25.22,3.7-29.75
			c-0.36-4.85-4.79-15.49-5.73-18.4c-0.96-2.89-1.89-11.61-3.62-15.34c-1.77-3.74-1.03-7.26-2.92-6.94c-1.87,0.31,0,6.93-0.02,7.73
			c-0.03,0.81,0.62,9.73,0.72,12.45c0.13,2.71,2.01,12.4,2.86,14.52c0.84,2.13,1.69,6.32,1.01,10.14
			c-0.68,3.83-1.25,10.2-2.56,12.01c-1.32,1.83-5.24,8.43-10.12,3.1c-1.49-1.63-5.99-11.5-8.03-14.64
			c-1.96-2.99-4.21-9.13-6.85-12.42c-2.64-3.26-4.86-6.14-10.74-11.6c-5.9-5.49-6.36-7.34-8.38-9.92
			c-2.04-2.56-6.51-8.76-8.59-11.16c-1.37-1.58-3.67-1.81-0.42,3.29c3.24,5.11,8.56,16.01,11.2,19.44
			c2.65,3.44,7.11,12.06,8.49,14.56c1.37,2.53,5.71,11.33,7.54,14.57c1.81,3.25,5.12,10.76,7.57,16.01
			c2.48,5.23,6.62,15.83,7.34,25.22c0.71,9.4-0.35,16.14-2.1,23.2c-1.74,7.04-1.36,14.25-2.77,19.31c0,0-0.86,12.54-8.43,20.36
			c-7.59,7.86-16.94,13.71-19.27,15.22c-2.33,1.51-17.11,8.77-22.71,12.89c-5.59,4.13-35.89,23.88-37.54,25.6
			c-1.66,1.72-3.8,2.39-3.8,2.39s-0.16-13.83,0.05-15.48c0.23-1.64,0.21-14.69,0.43-16.17c0.25-1.49,0.75-12.2,1.1-14.03
			c0.34-1.83,2.84-16.25,0.34-16.64c-2.47-0.4-2.25,5.84-4.41,10.54c-2.12,4.7-3.03,14.99-3.64,18.15
			c-0.62,3.15-2.1,22.73-1.91,23.83c0.16,1.08-0.35,10.83-1.95,12.88c-1.6,2.03-2.66,4.45-2.46,6.68
			C250.51,374.99,244.19,378.33,244.19,378.33L244.19,378.33z"/>
	</g>
</g>
<g>
	<g>
		<path d="M154.97,378.57c0,0,4.35,15.37-9.16,17.74c-11.01,1.95-12.16-7.03-12.16-7.03s4.16-13.22-12.12-18.13
			c-16.27-4.92-24.81,0.52-38.7-7.59c-13.39-7.81-17.2-15.05-19.07-27.26c-1.88-12.25-1.03-33.37-0.72-35.25
			c0,0,2.39-0.88,3.34,6.19c0.92,7.08,1.2,16.31,2.86,20.12c0.93,2.2,2.41,7.08,4.22,11.51c1.33,3.23,2.8,6.22,4.39,7.77
			c3.76,3.67,13.46,10.67,26.1,9.9c0.78-0.06-16.1-9.87-16.1-9.87s-13.76-7.56-17.46-8.64c-3.67-1.1-25.86-15.18-31.3-22.35
			c-5.45-7.16-18.06-13.99-19.13-15.02c-1.1-1.05-9.22-8.4-12.52-17.18c-3.37-9.01-5.61-23.62-5.41-28.75
			c0.18-5.11,2.18-1.41,2.18-1.41s5.17,19.19,6.67,21.86c1.5,2.65,5.43,11.18,11.12,15.82c5.69,4.65,9.33,6.99,10.88,7.25
			c1.57,0.26,2.08,0.08,0.63-4.73c-1.62-5.3-5.11-24.04-5.47-25.87c-0.35-1.82-3.8-17.2-3.19-22.9c0.35-3.33-2.3-21.47-2.73-22.85
			c-0.41-1.36-4.02-25.21-3.69-29.75c0.36-4.82,4.77-15.49,5.73-18.39c0.95-2.9,1.89-11.61,3.62-15.35
			c1.74-3.75,1.03-7.24,2.91-6.94c1.88,0.3,0,6.92,0.03,7.73c0.03,0.82-0.62,9.74-0.74,12.46c-0.13,2.71-2.02,12.4-2.86,14.51
			c-0.81,2.12-1.66,6.33-0.99,10.14c0.66,3.83,1.23,10.19,2.56,12.01c1.3,1.83,5.23,8.42,10.12,3.09c1.49-1.62,5.97-11.5,8.02-14.63
			c1.95-2.99,4.22-9.15,6.86-12.42c2.61-3.28,4.86-6.14,10.74-11.62c5.89-5.49,6.35-7.34,8.37-9.92c2.04-2.58,6.52-8.77,8.59-11.17
			c1.36-1.57,3.68-1.82,0.43,3.31c-3.25,5.11-8.58,15.99-11.22,19.42c-2.65,3.44-7.12,12.05-8.49,14.56
			c-1.36,2.52-5.7,11.32-7.52,14.56c-1.82,3.25-5.14,10.76-7.59,15.99c-2.47,5.25-6.6,15.84-7.33,25.24
			c-0.72,9.37,0.33,16.13,2.08,23.18c1.76,7.06,1.38,14.25,2.77,19.31c0,0,0.86,12.55,8.44,20.37c7.58,7.84,16.95,13.73,19.27,15.22
			c2.33,1.51,17.1,8.73,22.71,12.88c5.6,4.14,35.9,23.87,37.55,25.61c1.66,1.71,3.79,2.37,3.79,2.37s0.16-13.82-0.04-15.46
			c-0.23-1.65-0.2-14.69-0.44-16.19c-0.24-1.49-0.75-12.19-1.09-14.03c-0.34-1.82-2.85-16.24-0.35-16.65
			c2.46-0.38,2.27,5.86,4.41,10.55c2.12,4.7,3.03,14.99,3.64,18.14c0.62,3.18,2.11,22.74,1.92,23.83
			c-0.17,1.11,0.34,10.86,1.95,12.88c1.6,2.03,2.65,4.47,2.44,6.68C148.49,375.72,154.97,378.57,154.97,378.57L154.97,378.57z"/>
	</g>
</g>
<g>
	<g>
		<path class="st2" d="M248.17,370.28c-20.79,0-36.09-0.08-48.38-0.15c-9.06-0.05-16.89-0.09-24.64-0.09
			c-7.13,0-13.62,0.04-20.43,0.11c-1.63,0-3.02-0.99-3.5-2.45c-0.54-1.66,0.08-3.17,1.87-4.48c0.07-0.05,0.14-0.1,0.2-0.15
			c3.33-3.54,10.85-11.69,12.29-27.9l0.39-195.97H91.11c-11.77,6.09-16.96,8.97-20.41,10.88c-2.88,1.6-4.78,2.65-8.35,4.39l-6.16,3
			l13.73-78.51h265.64l5.39,32.99l6.45,47.08l-6.1-3.36c-1.96-1.08-3.94-2.22-6.27-3.55c-5.04-2.89-11.91-6.84-23.85-13.2h-74.45
			l-0.27,196.43c0.02,10.14,8.5,23.11,13.13,27.95c0.05,0.03,0.1,0.07,0.15,0.11c1.77,1.26,2.4,2.74,1.87,4.42
			C251.14,369.28,249.76,370.28,248.17,370.28L248.17,370.28z"/>
		<path class="st3" d="M332.59,82.46l4.91,30.05l5.49,40.09c-6.35-3.5-12.99-7.64-30.93-17.19h-1.96h-76.86l-0.27,199.92
			c0.03,12.04,9.96,26.11,14.23,30.51c0.31,0.32,1.44,0.94,0.96,0.94c-35.82,0-54.53-0.24-73.02-0.24c-6.6,0-13.16,0.03-20.47,0.11
			c0,0,0,0-0.01,0c-0.52,0,0.72-0.71,1.06-1.07c4.1-4.37,11.86-13.12,13.34-30.25l0.39-199.63H92.04h-1.78
			c-22.22,11.48-21.59,11.8-29.44,15.62l12.04-68.87H332.59 M338.54,75.46h-5.95H72.86h-5.88l-1.01,5.79l-12.04,68.87l-2.36,13.49
			l12.32-5.99c3.65-1.78,5.59-2.85,8.51-4.47c3.36-1.86,8.37-4.64,19.57-10.44h0.08h70.4l-0.38,192.31
			c-1.34,14.59-7.75,21.83-11.12,25.44c-4.2,3.13-3.54,6.87-3.05,8.34c0.95,2.91,3.68,4.86,6.78,4.86h0.04l0.05,0
			c6.8-0.08,13.28-0.11,20.39-0.11c7.75,0,15.57,0.04,24.62,0.09c12.3,0.07,27.6,0.15,48.4,0.15c3.12,0,5.85-1.97,6.79-4.91
			c0.47-1.47,1.1-5.21-3.04-8.24c-4.2-4.51-11.92-16.41-11.94-25.32l0.26-192.91h69.87h0.21c11.41,6.1,18.07,9.91,22.98,12.73
			c2.32,1.33,4.33,2.48,6.32,3.58l12.21,6.72l-1.89-13.81l-5.49-40.09l-0.01-0.09l-0.01-0.09l-4.91-30.05L338.54,75.46L338.54,75.46
			z"/>
	</g>
</g>
<g>
	<g>
		<path class="st4" d="M183.47,365.73c-0.59-1.1,0-1.98,0.47-2.68c1.29-1.93,5.21-7.78,5.93-18.11l-1.62-223.61h-95.1
			c-2.17,1.07-12.19,6.02-17.14,8.51l-3.75,1.89l7.98-36.48l245.57,0.68l6.18,35.64l-3.69-2.1c-4-2.28-18.26-7.5-20.61-8.35h-94.8
			l-0.19,223.89c0.26,6.41,5.52,15.26,8.26,18.18l0.9,0.96l-0.52,1.21c-0.54,1.26-0.64,1.26-5.92,1.33
			c-2.48,0.03-5.85,0.05-9.37,0.07c-7.04,0.03-14.73,0.04-17.39,0.04c-0.23,0-0.52,0-0.81-0.02l-3.8,0.03L183.47,365.73z"/>
		<path class="st4" d="M81.85,97.26l242.28,0.67l5.17,29.8c-4.54-2.59-21.25-8.61-21.25-8.61H210.9L210.7,345
			c0.29,7.05,5.74,16.3,8.8,19.55c0.2,0.21-25.42,0.24-30.82,0.24c-0.67,0-1.02,0-0.99,0c0.87-0.02,1.88-0.03,2.91-0.05
			c5.98-0.05,7.74-0.08,7.31-0.08c-0.51,0-4.05,0.03-7.31,0.08c-1.51,0.01-3.29,0.03-5.36,0.05c0,0,0,0,0,0
			c-0.38,0,5.72-6.49,6.62-19.79l-1.64-225.67H92.68c0,0-11.96,5.9-17.57,8.73L81.85,97.26 M78.63,93.25l-0.69,3.15l-6.74,30.8
			l-1.8,8.21l7.5-3.78c4.68-2.36,13.89-6.91,16.71-8.3h92.64l1.61,221.55c-0.7,9.75-4.38,15.25-5.59,17.06
			c-0.52,0.77-1.73,2.58-0.57,4.73l1.13,2.12l2.41,0.01l2.23-0.02c0.15,0.01,0.31,0.02,0.48,0.02l0.74,0
			c3.03,0,10.57-0.01,17.4-0.04c3.97-0.02,7.12-0.04,9.36-0.07c1.26-0.02,2.3-0.03,3.03-0.06c1.46-0.04,3.66-0.11,4.69-2.48
			l1.04-2.41l-1.8-1.92c-2.48-2.64-7.43-10.98-7.71-16.9l0.19-221.8h92.45c5,1.82,16.65,6.19,19.97,8.09l7.37,4.21l-1.45-8.37
			l-5.17-29.8l-0.57-3.31l-3.36-0.01L81.86,93.26L78.63,93.25L78.63,93.25z"/>
	</g>
</g>
<rect x="19.37" y="450.49" class="st5" width="366.73" height="80.75"/>
<rect x="19.24" y="370.1" class="st6" width="366.73" height="80.75"/>
<text transform="matrix(1 0 0 1 30.189 442.5381)" class="st4 st7 st8">Tall Timbers</text>
<text transform="matrix(1 0 0 1 26.8608 523.2021)" class="st2 st7 st8 st9">Taxidermy</text>
</svg>
